M48
; DRILL file {KiCad (5.1.5-0-10_14)} date 2020 May 05, Tuesday 06:22:04
; FORMAT={3:3/ absolute / metric / suppress leading zeros}
; #@! TF.CreationDate,2020-05-05T06:22:04+02:00
; #@! TF.GenerationSoftware,Kicad,Pcbnew,(5.1.5-0-10_14)
FMAT,2
METRIC,TZ
T1C0.800
T2C0.900
T3C1.000
T4C1.300
T5C1.500
T6C1.600
T7C3.000
%
G90
G05
T1
X-24130Y74930
X-24130Y8890
X-22860Y19050
X-22860Y81280
X96520Y49530
X96520Y32385
X99060Y19050
X117475Y19050
X99060Y57150
X99060Y49530
X101600Y57150
X101600Y49530
X69850Y55880
X69850Y53340
X69850Y50800
X101505Y73025
X103505Y73025
X92075Y40640
X92075Y38140
X115570Y59690
X115570Y57190
T2
X-32245Y66335
X-32245Y63795
X-32245Y61255
X-32245Y36335
X-32245Y33795
X-32245Y31255
T3
X7620Y62230
X7620Y29210
X-6350Y49530
X-6350Y67310
X7620Y49530
X88265Y67945
X90805Y67945
X81915Y34925
X84455Y34925
X-6350Y62230
X7620Y13970
X7620Y11430
X7620Y8890
X-6350Y34290
X78740Y25400
X78740Y20400
X-6350Y13970
X-6350Y11430
X-6350Y8890
X7620Y67310
X7620Y34290
X-30480Y54610
X-30480Y52070
X-30480Y49530
X-30480Y46990
X-30480Y44450
X-30480Y41910
X-6350Y29210
X109855Y60325
X109855Y55245
X109855Y50165
X109855Y47625
X7620Y54610
X-6350Y54610
X73025Y45085
X75565Y45085
X71120Y67945
X73660Y67945
X76200Y67945
X78740Y67945
X81280Y67945
X83820Y67945
T4
X82550Y87630
X87630Y87630
X92710Y87630
X97790Y87630
X21590Y87630
X26670Y87630
X31750Y87630
X52070Y87630
X57150Y87630
X62230Y87630
X67310Y87630
X72310Y87630
X77310Y87630
X36830Y87630
X41830Y87630
X46830Y87630
T5
X-19050Y74930
X-19050Y59930
X-19050Y54930
X-19050Y49930
X-11550Y74930
X-11550Y59930
X-11550Y54930
X-11550Y49930
X-18930Y44050
X-18930Y39050
X-18930Y34050
X-18930Y19050
X-11430Y44050
X-11430Y39050
X-11430Y34050
X-11430Y19050
T6
X84200Y10970
X88900Y13970
X88900Y7970
T7
X20320Y10795
X106840Y11000
X-36245Y10795
X104140Y83820
X12540Y11000
X-36245Y86795
X15240Y83820
X99060Y10795
T0
M30
